<?xml version="1.0" encoding="utf-8"?>
<!-- Generator: Adobe Illustrator 15.0.0, SVG Export Plug-In . SVG Version: 6.00 Build 0)  -->
<!DOCTYPE svg PUBLIC "-//W3C//DTD SVG 1.1//EN" "http://www.w3.org/Graphics/SVG/1.1/DTD/svg11.dtd">
<svg version="1.1" id="Layer_1" xmlns="http://www.w3.org/2000/svg" xmlns:xlink="http://www.w3.org/1999/xlink" x="0px" y="0px"
	 width="26px" height="26px" viewBox="0 0 26 26" enable-background="new 0 0 26 26" xml:space="preserve">
<rect fill="none" width="26" height="26"/>
<rect fill="none" width="26" height="26"/>
<path fill-rule="evenodd" clip-rule="evenodd" fill="#fff" d="M8.778,18.51l-0.792,0.285L7.14,19.133l-1.419,0.271l-1.353-0.169
	c-0.271-0.17-0.339-0.339-0.169-0.507c0.169-0.102,0.405-0.237,0.676-0.339l0.913-0.338l2.991-1.06V14.58l-0.792,0.259l-4.904,1.759
	l-0.846,0.337c-1.285,0.541-1.961,1.116-1.927,1.623c0.067,0.744,0.913,1.285,2.435,1.692c1.976,0.533,3.984,0.642,6.034,0.335
	V18.51z"/>
<g>
	<path fill-rule="evenodd" clip-rule="evenodd" fill="#fff" d="M19.146,7.295c-0.676-0.912-1.86-1.656-3.619-2.265
		C13.332,4.32,11.487,3.802,10,3.49v18.349l3.972,1.217V7.736c0-0.405,0.034-0.677,0.203-0.847c0.169-0.235,0.338-0.269,0.575-0.168
		c0.574,0.168,0.846,0.677,0.846,1.521v6.155c1.285,0.609,2.435,0.676,3.279,0.034c0.88-0.609,1.354-1.691,1.354-3.314
		C20.229,9.427,19.891,8.142,19.146,7.295z"/>
</g>
<path fill-rule="evenodd" clip-rule="evenodd" fill="#fff" d="M23.543,16.191c-1.521-0.509-3.045-0.677-4.465-0.608
	C17.765,15.61,16.402,15.85,15,16.294v2.465l2.793-0.979l1.421-0.508c0,0,0.55-0.131,0.946-0.236
	c0.605-0.161,1.252,0.067,1.252,0.067c0.371,0.033,0.541,0.169,0.609,0.339c0.067,0.202-0.17,0.371-0.677,0.541l-1.251,0.474
	L15,20.294v2.396l2.389-0.852l5.715-2.029l0.676-0.303c1.354-0.508,1.962-1.049,1.895-1.726
	C25.64,17.137,24.895,16.631,23.543,16.191z"/>
</svg>
